<?xml version="1.0" encoding="UTF-8" standalone="no"?>
<!DOCTYPE svg PUBLIC "-//W3C//DTD SVG 1.1//EN" "http://www.w3.org/Graphics/SVG/1.1/DTD/svg11.dtd">
<svg width="100%" height="100%" viewBox="0 0 6969 2048" version="1.1" xmlns="http://www.w3.org/2000/svg" xmlns:xlink="http://www.w3.org/1999/xlink" xml:space="preserve" xmlns:serif="http://www.serif.com/" style="fill-rule:evenodd;clip-rule:evenodd;stroke-linejoin:round;stroke-miterlimit:2;">
    <g id="Logo-Blanc" serif:id="Logo Blanc">
        <g transform="matrix(1,0,0,1,-1749.56,-288.545)">
            <g transform="matrix(1120.83,0,0,1120.83,2591.12,1704.02)">
                <path d="M0.485,-0.045C0.452,-0.034 0.416,-0.028 0.381,-0.029C0.344,-0.03 0.307,-0.037 0.273,-0.05C0.185,-0.082 0.116,-0.152 0.083,-0.24C0.07,-0.274 0.063,-0.311 0.062,-0.347C0.061,-0.383 0.067,-0.418 0.079,-0.452C0.108,-0.532 0.171,-0.596 0.252,-0.625C0.285,-0.637 0.321,-0.642 0.356,-0.641C0.393,-0.64 0.429,-0.633 0.464,-0.62C0.507,-0.604 0.547,-0.579 0.58,-0.546L0.616,-0.583C0.578,-0.621 0.531,-0.649 0.479,-0.665C0.439,-0.677 0.396,-0.681 0.355,-0.677C0.316,-0.673 0.278,-0.663 0.243,-0.648C0.159,-0.61 0.093,-0.544 0.056,-0.461C0.04,-0.425 0.03,-0.387 0.026,-0.349C0.023,-0.307 0.027,-0.265 0.038,-0.225C0.07,-0.119 0.152,-0.036 0.258,-0.005C0.298,0.007 0.34,0.011 0.382,0.007C0.421,0.003 0.459,-0.007 0.494,-0.022C0.535,-0.041 0.573,-0.067 0.605,-0.099L0.591,-0.112C0.561,-0.083 0.525,-0.06 0.485,-0.045Z" style="fill:white;fill-rule:nonzero;"/>
            </g>
            <g transform="matrix(1120.83,0,0,1120.83,3288.28,1704.02)">
                <path d="M0.483,0.053C0.473,0.043 0.465,0.032 0.459,0.019C0.453,0.006 0.448,-0.009 0.442,-0.026C0.435,-0.046 0.426,-0.066 0.417,-0.085C0.394,-0.131 0.365,-0.16 0.334,-0.176C0.323,-0.182 0.312,-0.186 0.301,-0.189C0.308,-0.192 0.316,-0.194 0.323,-0.196C0.35,-0.206 0.375,-0.22 0.397,-0.238C0.422,-0.258 0.442,-0.282 0.457,-0.309C0.514,-0.41 0.488,-0.538 0.397,-0.61C0.375,-0.628 0.35,-0.642 0.323,-0.652C0.292,-0.664 0.259,-0.669 0.226,-0.67L0.028,-0.67L0.028,-0.65L0.04,-0.65C0.055,-0.65 0.067,-0.638 0.067,-0.622L0.067,-0.048C0.067,-0.033 0.055,-0.02 0.04,-0.02L0.028,-0.02L0.028,-0.001L0.159,-0.001L0.159,-0.02L0.147,-0.02C0.132,-0.02 0.12,-0.033 0.12,-0.048L0.12,-0.213C0.15,-0.19 0.188,-0.178 0.226,-0.179L0.227,-0.179C0.244,-0.179 0.261,-0.176 0.278,-0.17C0.291,-0.164 0.303,-0.157 0.314,-0.147C0.334,-0.128 0.349,-0.104 0.37,-0.062C0.391,-0.019 0.407,0.012 0.429,0.038C0.44,0.052 0.454,0.064 0.469,0.073C0.487,0.083 0.507,0.089 0.528,0.089L0.528,0.069C0.512,0.07 0.496,0.064 0.483,0.053ZM0.226,-0.199C0.181,-0.199 0.146,-0.213 0.12,-0.24L0.12,-0.65L0.226,-0.65C0.256,-0.65 0.286,-0.643 0.313,-0.63C0.336,-0.618 0.356,-0.603 0.373,-0.584C0.391,-0.565 0.405,-0.543 0.415,-0.519C0.442,-0.459 0.442,-0.39 0.415,-0.33C0.405,-0.306 0.391,-0.284 0.373,-0.265C0.356,-0.246 0.336,-0.23 0.313,-0.219C0.286,-0.206 0.256,-0.199 0.226,-0.199Z" style="fill:white;fill-rule:nonzero;"/>
            </g>
            <g transform="matrix(1120.83,0,0,1120.83,3863.27,1704.02)">
                <path d="M0.574,-0.02C0.562,-0.02 0.552,-0.027 0.548,-0.038L0.324,-0.646L0.333,-0.67L0.277,-0.67L0.045,-0.038C0.041,-0.027 0.031,-0.02 0.019,-0.02L-0.003,-0.02L-0.003,-0.001L0.128,-0.001L0.128,-0.02L0.107,-0.02C0.104,-0.02 0.101,-0.022 0.099,-0.024C0.098,-0.027 0.097,-0.03 0.098,-0.033L0.181,-0.258C0.219,-0.271 0.295,-0.29 0.367,-0.261C0.428,-0.237 0.473,-0.184 0.503,-0.104L0.529,-0.033C0.53,-0.03 0.529,-0.027 0.528,-0.024C0.526,-0.022 0.523,-0.02 0.52,-0.02L0.51,-0.02L0.51,-0.001L0.585,-0.001L0.585,-0.02L0.574,-0.02ZM0.374,-0.279C0.304,-0.307 0.233,-0.295 0.19,-0.282L0.314,-0.618L0.461,-0.216C0.438,-0.244 0.408,-0.266 0.374,-0.279Z" style="fill:white;fill-rule:nonzero;"/>
            </g>
            <g transform="matrix(1120.83,0,0,1120.83,4470.76,1704.02)">
                <path d="M0.719,0.039C0.703,0.032 0.688,0.023 0.675,0.011C0.649,-0.013 0.631,-0.043 0.599,-0.093C0.601,-0.095 0.603,-0.096 0.605,-0.098C0.605,-0.098 0.605,-0.098 0.605,-0.099L0.605,-0.099C0.613,-0.107 0.621,-0.115 0.628,-0.124C0.65,-0.15 0.667,-0.179 0.681,-0.209C0.697,-0.245 0.707,-0.283 0.711,-0.321C0.715,-0.363 0.71,-0.405 0.699,-0.445C0.667,-0.551 0.585,-0.634 0.479,-0.665C0.439,-0.677 0.397,-0.681 0.355,-0.677C0.316,-0.674 0.278,-0.664 0.243,-0.648C0.212,-0.634 0.183,-0.616 0.158,-0.595C0.149,-0.588 0.14,-0.58 0.132,-0.572C0.132,-0.572 0.132,-0.572 0.132,-0.572C0.132,-0.572 0.132,-0.571 0.132,-0.571C0.124,-0.563 0.116,-0.555 0.109,-0.546C0.087,-0.52 0.07,-0.492 0.056,-0.461C0.04,-0.425 0.03,-0.388 0.026,-0.349C0.023,-0.307 0.027,-0.265 0.038,-0.225C0.07,-0.119 0.153,-0.036 0.258,-0.005C0.298,0.007 0.34,0.011 0.382,0.007C0.421,0.003 0.459,-0.007 0.494,-0.022C0.517,-0.033 0.539,-0.045 0.559,-0.06C0.572,-0.039 0.586,-0.02 0.602,-0.002C0.617,0.014 0.635,0.028 0.654,0.04C0.69,0.06 0.729,0.07 0.782,0.07L0.782,0.051C0.761,0.051 0.739,0.047 0.719,0.039ZM0.588,-0.109C0.576,-0.127 0.563,-0.143 0.549,-0.159C0.534,-0.175 0.516,-0.189 0.497,-0.2C0.479,-0.21 0.459,-0.217 0.439,-0.222C0.416,-0.227 0.392,-0.229 0.368,-0.229L0.368,-0.209C0.39,-0.21 0.411,-0.206 0.432,-0.198C0.448,-0.192 0.463,-0.182 0.477,-0.17C0.49,-0.158 0.502,-0.144 0.513,-0.128C0.524,-0.114 0.534,-0.097 0.548,-0.077C0.528,-0.064 0.507,-0.053 0.485,-0.045C0.452,-0.034 0.416,-0.028 0.381,-0.029C0.344,-0.03 0.308,-0.037 0.273,-0.05C0.185,-0.082 0.116,-0.152 0.083,-0.24C0.07,-0.274 0.063,-0.31 0.062,-0.347C0.061,-0.383 0.067,-0.418 0.079,-0.452C0.12,-0.569 0.232,-0.645 0.356,-0.641C0.393,-0.641 0.43,-0.634 0.464,-0.621C0.552,-0.588 0.621,-0.519 0.654,-0.431C0.667,-0.396 0.674,-0.36 0.675,-0.323C0.676,-0.287 0.67,-0.252 0.658,-0.218C0.644,-0.179 0.621,-0.142 0.591,-0.112C0.59,-0.111 0.589,-0.11 0.588,-0.109L0.588,-0.109Z" style="fill:white;fill-rule:nonzero;"/>
            </g>
            <g transform="matrix(1120.83,0,0,1120.83,5300.18,1704.02)">
                <path d="M0.502,-0.67L0.502,-0.65C0.517,-0.65 0.53,-0.638 0.53,-0.622L0.53,-0.236C0.53,-0.117 0.433,-0.02 0.314,-0.02C0.285,-0.02 0.256,-0.027 0.23,-0.04C0.208,-0.051 0.189,-0.066 0.173,-0.084C0.156,-0.102 0.142,-0.123 0.132,-0.146C0.12,-0.175 0.114,-0.205 0.114,-0.236L0.114,-0.622C0.114,-0.638 0.126,-0.65 0.141,-0.65L0.153,-0.65L0.153,-0.67L0.022,-0.67L0.022,-0.65L0.034,-0.65C0.049,-0.65 0.061,-0.638 0.061,-0.622L0.061,-0.236C0.062,-0.197 0.072,-0.159 0.09,-0.125C0.105,-0.099 0.125,-0.076 0.148,-0.057C0.17,-0.04 0.194,-0.027 0.22,-0.017C0.25,-0.006 0.282,-0.001 0.314,-0.001C0.44,-0.001 0.544,-0.1 0.549,-0.227L0.549,-0.227L0.549,-0.622C0.549,-0.638 0.562,-0.65 0.577,-0.65L0.577,-0.67L0.502,-0.67Z" style="fill:white;fill-rule:nonzero;"/>
            </g>
            <g transform="matrix(1120.83,0,0,1120.83,5979.4,1704.02)">
                <path d="M0.45,-0.588L0.45,-0.67L0.028,-0.67L0.028,-0.65L0.04,-0.65C0.055,-0.65 0.067,-0.638 0.067,-0.622L0.067,-0.048C0.067,-0.033 0.055,-0.02 0.04,-0.02L0.028,-0.02L0.028,-0.001L0.45,-0.001L0.45,-0.083L0.431,-0.083L0.431,-0.048C0.431,-0.033 0.418,-0.02 0.403,-0.02L0.119,-0.02L0.119,-0.325L0.319,-0.325L0.319,-0.345L0.119,-0.345L0.119,-0.65L0.403,-0.65C0.418,-0.65 0.431,-0.638 0.431,-0.622L0.431,-0.588L0.45,-0.588Z" style="fill:white;fill-rule:nonzero;"/>
            </g>
            <g transform="matrix(1120.83,0,0,1120.83,6500.59,1704.02)">
                <path d="M0.431,-0.083L0.431,-0.048C0.431,-0.033 0.418,-0.02 0.403,-0.02L0.12,-0.02L0.12,-0.622C0.12,-0.638 0.132,-0.65 0.147,-0.65L0.159,-0.65L0.159,-0.67L0.028,-0.67L0.028,-0.65L0.04,-0.65C0.055,-0.65 0.067,-0.638 0.067,-0.622L0.067,-0.048C0.067,-0.033 0.055,-0.02 0.04,-0.02L0.028,-0.02L0.028,-0.001L0.45,-0.001L0.45,-0.083L0.431,-0.083Z" style="fill:white;fill-rule:nonzero;"/>
            </g>
            <g transform="matrix(1120.83,0,0,1120.83,7007.21,1704.02)">
                <path d="M0.147,-0.65L0.159,-0.65L0.159,-0.67L0.028,-0.67L0.028,-0.65L0.04,-0.65C0.055,-0.65 0.067,-0.638 0.067,-0.622L0.067,-0.048C0.067,-0.033 0.055,-0.02 0.04,-0.02L0.028,-0.02L0.028,-0.001L0.159,-0.001L0.159,-0.02L0.147,-0.02C0.132,-0.02 0.12,-0.033 0.12,-0.048L0.12,-0.622C0.12,-0.638 0.132,-0.65 0.147,-0.65Z" style="fill:white;fill-rule:nonzero;"/>
            </g>
            <g transform="matrix(1120.83,0,0,1120.83,7216.8,1704.02)">
                <path d="M0.581,-0.02C0.566,-0.02 0.553,-0.033 0.553,-0.048L0.553,-0.622C0.553,-0.638 0.566,-0.65 0.581,-0.65L0.581,-0.67L0.506,-0.67L0.506,-0.65L0.506,-0.65C0.521,-0.65 0.534,-0.638 0.534,-0.622L0.534,-0.061L0.121,-0.67L0.02,-0.67L0.02,-0.65L0.048,-0.65C0.063,-0.65 0.076,-0.638 0.076,-0.622L0.076,-0.048C0.076,-0.033 0.063,-0.02 0.048,-0.02L0.048,-0.001L0.123,-0.001L0.123,-0.02C0.108,-0.02 0.095,-0.033 0.095,-0.048L0.095,-0.614L0.512,-0.001L0.609,-0.001L0.609,-0.02L0.581,-0.02Z" style="fill:white;fill-rule:nonzero;"/>
            </g>
            <g transform="matrix(1120.83,0,0,1120.83,7921.81,1704.02)">
                <path d="M0.45,-0.588L0.45,-0.67L0.028,-0.67L0.028,-0.65L0.04,-0.65C0.055,-0.65 0.067,-0.638 0.067,-0.622L0.067,-0.048C0.067,-0.033 0.055,-0.02 0.04,-0.02L0.028,-0.02L0.028,-0.001L0.45,-0.001L0.45,-0.083L0.431,-0.083L0.431,-0.048C0.431,-0.033 0.418,-0.02 0.403,-0.02L0.119,-0.02L0.119,-0.325L0.319,-0.325L0.319,-0.345L0.119,-0.345L0.119,-0.65L0.403,-0.65C0.418,-0.65 0.431,-0.638 0.431,-0.622L0.431,-0.588L0.45,-0.588Z" style="fill:white;fill-rule:nonzero;"/>
            </g>
        </g>
        <g transform="matrix(1,0,0,1,-1800.26,756.805)">
            <g transform="matrix(312.5,0,0,312.5,3770.7,1089.06)">
                <path d="M0.114,-0L0.114,-0.7L0.175,-0.7L0.495,-0.154L0.463,-0.154L0.78,-0.7L0.841,-0.7L0.841,-0L0.77,-0L0.77,-0.589L0.787,-0.589L0.495,-0.089L0.46,-0.089L0.166,-0.589L0.185,-0.589L0.185,-0L0.114,-0Z" style="fill:white;fill-rule:nonzero;"/>
            </g>
            <g transform="matrix(312.5,0,0,312.5,4139.76,1089.06)">
                <path d="M0.42,0.006C0.367,0.006 0.319,-0.003 0.274,-0.021C0.229,-0.038 0.19,-0.063 0.157,-0.096C0.124,-0.128 0.098,-0.166 0.08,-0.209C0.061,-0.252 0.052,-0.299 0.052,-0.35C0.052,-0.401 0.061,-0.448 0.08,-0.492C0.098,-0.535 0.124,-0.572 0.157,-0.605C0.19,-0.637 0.228,-0.662 0.273,-0.68C0.318,-0.697 0.367,-0.706 0.42,-0.706C0.473,-0.706 0.521,-0.697 0.566,-0.68C0.611,-0.662 0.65,-0.637 0.683,-0.605C0.716,-0.573 0.741,-0.535 0.76,-0.492C0.778,-0.449 0.787,-0.401 0.787,-0.35C0.787,-0.299 0.778,-0.251 0.76,-0.208C0.741,-0.165 0.716,-0.127 0.683,-0.095C0.65,-0.063 0.611,-0.038 0.566,-0.021C0.521,-0.003 0.473,0.006 0.42,0.006ZM0.42,-0.06C0.462,-0.06 0.501,-0.067 0.537,-0.082C0.572,-0.096 0.603,-0.116 0.63,-0.143C0.656,-0.169 0.676,-0.2 0.691,-0.235C0.706,-0.27 0.713,-0.308 0.713,-0.35C0.713,-0.392 0.706,-0.431 0.691,-0.466C0.676,-0.501 0.656,-0.531 0.63,-0.558C0.603,-0.584 0.572,-0.604 0.537,-0.619C0.501,-0.633 0.462,-0.64 0.42,-0.64C0.378,-0.64 0.339,-0.633 0.303,-0.619C0.267,-0.604 0.236,-0.584 0.21,-0.558C0.183,-0.531 0.163,-0.501 0.148,-0.466C0.132,-0.431 0.125,-0.392 0.125,-0.35C0.125,-0.309 0.132,-0.27 0.148,-0.235C0.163,-0.2 0.183,-0.169 0.21,-0.143C0.236,-0.116 0.267,-0.096 0.303,-0.082C0.339,-0.067 0.378,-0.06 0.42,-0.06Z" style="fill:white;fill-rule:nonzero;"/>
            </g>
            <g transform="matrix(312.5,0,0,312.5,4472.57,1089.06)">
                <path d="M0.114,-0L0.114,-0.7L0.175,-0.7L0.658,-0.092L0.626,-0.092L0.626,-0.7L0.699,-0.7L0.699,-0L0.638,-0L0.156,-0.608L0.188,-0.608L0.188,-0L0.114,-0Z" style="fill:white;fill-rule:nonzero;"/>
            </g>
            <g transform="matrix(312.5,0,0,312.5,4797.26,1089.06)">
                <path d="M0.25,-0L0.25,-0.636L0.004,-0.636L0.004,-0.7L0.57,-0.7L0.57,-0.636L0.324,-0.636L0.324,-0L0.25,-0Z" style="fill:white;fill-rule:nonzero;"/>
            </g>
            <g transform="matrix(312.5,0,0,312.5,5047.26,1089.06)">
                <path d="M0.114,-0L0.114,-0.7L0.376,-0.7C0.435,-0.7 0.486,-0.691 0.529,-0.672C0.572,-0.653 0.604,-0.625 0.628,-0.59C0.651,-0.554 0.662,-0.511 0.662,-0.46C0.662,-0.411 0.651,-0.368 0.628,-0.333C0.604,-0.297 0.572,-0.269 0.529,-0.25C0.486,-0.231 0.435,-0.221 0.376,-0.221L0.155,-0.221L0.188,-0.256L0.188,-0L0.114,-0ZM0.188,-0.25L0.155,-0.286L0.374,-0.286C0.444,-0.286 0.497,-0.301 0.534,-0.332C0.57,-0.362 0.588,-0.405 0.588,-0.46C0.588,-0.516 0.57,-0.559 0.534,-0.59C0.497,-0.621 0.444,-0.636 0.374,-0.636L0.155,-0.636L0.188,-0.671L0.188,-0.25Z" style="fill:white;fill-rule:nonzero;"/>
            </g>
            <g transform="matrix(312.5,0,0,312.5,5339.13,1089.06)">
                <path d="M0.114,-0L0.114,-0.7L0.594,-0.7L0.594,-0.636L0.188,-0.636L0.188,-0.064L0.609,-0.064L0.609,-0L0.114,-0ZM0.18,-0.324L0.18,-0.387L0.55,-0.387L0.55,-0.324L0.18,-0.324Z" style="fill:white;fill-rule:nonzero;"/>
            </g>
            <g transform="matrix(312.5,0,0,312.5,5618.82,1089.06)">
                <path d="M0.114,-0L0.114,-0.7L0.188,-0.7L0.188,-0.064L0.58,-0.064L0.58,-0L0.114,-0Z" style="fill:white;fill-rule:nonzero;"/>
            </g>
            <g transform="matrix(312.5,0,0,312.5,5873.51,1089.06)">
                <path d="M0.114,-0L0.114,-0.7L0.188,-0.7L0.188,-0.064L0.58,-0.064L0.58,-0L0.114,-0Z" style="fill:white;fill-rule:nonzero;"/>
            </g>
            <g transform="matrix(312.5,0,0,312.5,6128.2,1089.06)">
                <rect x="0.114" y="-0.7" width="0.074" height="0.7" style="fill:white;fill-rule:nonzero;"/>
            </g>
            <g transform="matrix(312.5,0,0,312.5,6293.2,1089.06)">
                <path d="M0.114,-0L0.114,-0.7L0.594,-0.7L0.594,-0.636L0.188,-0.636L0.188,-0.064L0.609,-0.064L0.609,-0L0.114,-0ZM0.18,-0.324L0.18,-0.387L0.55,-0.387L0.55,-0.324L0.18,-0.324Z" style="fill:white;fill-rule:nonzero;"/>
            </g>
            <g transform="matrix(312.5,0,0,312.5,6572.88,1089.06)">
                <path d="M0.114,-0L0.114,-0.7L0.376,-0.7C0.465,-0.7 0.535,-0.679 0.586,-0.637C0.636,-0.594 0.662,-0.535 0.662,-0.46C0.662,-0.411 0.651,-0.368 0.628,-0.333C0.604,-0.297 0.572,-0.27 0.529,-0.251C0.486,-0.232 0.435,-0.222 0.376,-0.222L0.155,-0.222L0.188,-0.256L0.188,-0L0.114,-0ZM0.592,-0L0.412,-0.254L0.492,-0.254L0.673,-0L0.592,-0ZM0.188,-0.25L0.155,-0.285L0.374,-0.285C0.444,-0.285 0.497,-0.3 0.534,-0.331C0.57,-0.362 0.588,-0.405 0.588,-0.46C0.588,-0.516 0.57,-0.559 0.534,-0.59C0.497,-0.621 0.444,-0.636 0.374,-0.636L0.155,-0.636L0.188,-0.671L0.188,-0.25Z" style="fill:white;fill-rule:nonzero;"/>
            </g>
        </g>
        <g id="Logo-C2" serif:id="Logo C2" transform="matrix(1,0,0,1,231,25)">
            <g id="Cercle-ext" serif:id="Cercle ext">
                <path d="M384.82,492.357C489.439,127.341 960.793,-62.835 1075.53,190.177" style="fill:none;stroke:white;stroke-width:25.3px;stroke-miterlimit:1.5;"/>
                <g transform="matrix(-0.707107,-0.707107,0.707107,-0.707107,1021.74,2471.76)">
                    <path d="M384.82,492.357C467.47,175.124 887.784,-52.027 1054.96,152.407" style="fill:none;stroke:white;stroke-width:25.3px;stroke-miterlimit:1.5;"/>
                </g>
                <g transform="matrix(2.22045e-16,-1,1,2.22045e-16,-1.39237,2045.99)">
                    <path d="M384.82,492.357C467.47,175.124 887.784,-52.027 1054.96,152.407" style="fill:none;stroke:white;stroke-width:25.3px;stroke-miterlimit:1.5;"/>
                </g>
                <g transform="matrix(0.707107,-0.707107,0.707107,0.707107,-425.207,1023.18)">
                    <path d="M384.82,492.357C467.47,175.124 887.784,-52.027 1054.96,152.407" style="fill:none;stroke:white;stroke-width:25.3px;stroke-miterlimit:1.5;"/>
                </g>
            </g>
            <g id="Cercle-int" serif:id="Cercle int" transform="matrix(1.21513,0,0,1.21513,-682.533,-482.045)">
                <path d="M1728.27,1654.51C1729.58,1653.49 1735.59,1650.83 1740.9,1657.62C1745.51,1663.53 1748.41,1673.24 1744.99,1675.91C1651.03,1749.35 1532.79,1793.14 1404.4,1793.14C1098.79,1793.14 850.667,1545.02 850.667,1239.41C850.667,933.794 1098.79,685.674 1404.4,685.674C1532.63,685.674 1648.09,728.196 1742,801.48C1747.9,806.091 1750.25,821.254 1745.64,827.163C1741.03,833.071 1733.86,828.664 1727.95,824.054C1638.65,754.368 1526.34,712.832 1404.4,712.832C1113.77,712.832 877.824,948.782 877.824,1239.41C877.824,1530.03 1113.77,1765.98 1404.4,1765.98C1526.48,1765.98 1638.92,1724.35 1728.27,1654.51Z" style="fill:white;stroke:white;stroke-width:0.82px;"/>
            </g>
            <g id="Cercle-milieu" serif:id="Cercle milieu">
                <path d="M367.83,944.281C209.659,635.355 434.163,281.561 743.492,299.941" style="fill:none;stroke:white;stroke-width:25.3px;stroke-linecap:round;stroke-miterlimit:1.5;"/>
                <g transform="matrix(-0.707107,-0.707107,0.707107,-0.707107,1021.94,2471)">
                    <path d="M379.09,938.516C382.272,944.731 387.452,950.184 381.238,953.366C375.023,956.548 359.85,955.626 354.485,945.147C191.661,627.133 425.814,268.393 744.242,287.313C751.211,287.727 756.533,293.722 756.119,300.691C755.705,307.661 749.711,312.983 742.741,312.569C442.511,294.729 225.571,638.677 379.09,938.516Z" style="fill:white;stroke:white;stroke-width:1px;"/>
                </g>
                <g transform="matrix(1.11022e-16,-1,1,1.11022e-16,-0.696835,2046.72)">
                    <path d="M367.83,944.281C209.659,635.355 434.163,281.561 743.492,299.941" style="fill:none;stroke:white;stroke-width:25.3px;stroke-linecap:round;stroke-miterlimit:1.5;"/>
                </g>
                <g transform="matrix(0.707107,-0.707107,0.707107,0.707107,-425.047,1023.47)">
                    <path d="M367.83,944.281C209.659,635.355 434.163,281.561 743.492,299.941" style="fill:none;stroke:white;stroke-width:25.3px;stroke-linecap:round;stroke-miterlimit:1.5;"/>
                </g>
                <g transform="matrix(0.707107,0.707107,-0.707107,0.707107,1024.72,-423.646)">
                    <path d="M367.83,944.281C171.658,558.013 568.037,122.385 945.203,373.89" style="fill:none;stroke:white;stroke-width:25.3px;stroke-linecap:round;stroke-miterlimit:1.5;"/>
                </g>
            </g>
        </g>
    </g>
</svg>
